<svg width="113" height="15" viewBox="0 0 113 15" fill="none" xmlns="http://www.w3.org/2000/svg">
<g clip-path="url(#clip0)">
<path fill-rule="evenodd" clip-rule="evenodd" d="M59.7817 14.6961V11.5547H70.3677C70.815 11.5547 71.3928 11.4878 71.7096 11.1309C71.971 10.8196 72.1043 10.421 72.0824 10.0155V9.32778H63.6956C62.9653 9.34274 62.2368 9.25004 61.5336 9.05267C60.9815 8.89662 60.4719 8.61832 60.0426 8.23849C59.6576 7.88073 59.3691 7.43194 59.204 6.93359C59.0278 6.38852 58.9422 5.81838 58.9505 5.24576C58.8917 4.09114 59.2937 2.96028 60.0687 2.10059C60.9969 1.16002 62.4319 0.940672 63.6844 0.940672H72.2575C72.7434 0.929615 73.2285 0.983378 73.7001 1.10053C74.074 1.1879 74.4169 1.3756 74.6916 1.64332C74.9386 1.90858 75.1075 2.23658 75.1799 2.59133C75.2663 3.01451 75.3063 3.44583 75.2992 3.87765V10.0564C75.3033 10.6686 75.2141 11.2778 75.0345 11.8632C74.8608 12.4202 74.5597 12.9293 74.1548 13.3503C73.7167 13.7892 73.1837 14.1223 72.5967 14.3243C71.8895 14.5664 71.1451 14.6822 70.3975 14.6664L59.7817 14.6961ZM22.6301 13.6626C21.9144 12.8373 21.7616 11.603 21.7616 10.5546V0.940672H25.0008V10.1531C25.0008 11.1085 25.4443 11.551 26.406 11.551H33.7417V14.6961H25.6121C24.5609 14.6961 23.357 14.4991 22.6301 13.6738V13.6626ZM14.0159 6.29786V5.59522C14.0382 5.18972 13.905 4.79096 13.6432 4.47991C13.3301 4.10814 12.7486 4.0561 12.3013 4.0561H1.68548V0.940672H12.3125C13.0613 0.924404 13.807 1.04019 14.5154 1.2827C15.0992 1.48827 15.6282 1.82394 16.0623 2.26417C16.4671 2.68514 16.7683 3.19424 16.942 3.75124C17.1216 4.33663 17.2108 4.94587 17.2066 5.55804V11.748C17.2138 12.1798 17.1738 12.6111 17.0874 13.0343C17.0152 13.3891 16.8462 13.7172 16.5991 13.9823C16.3301 14.2452 15.9955 14.4313 15.6299 14.5214C15.1584 14.6386 14.6732 14.6923 14.1874 14.6812H5.61422C4.35061 14.6961 2.91927 14.4619 2.00604 13.5213C1.23102 12.6616 0.828948 11.5308 0.8878 10.3762C0.879546 9.80354 0.965164 9.23342 1.14127 8.68833C1.3075 8.18959 1.59725 7.74076 1.98367 7.38343C2.41284 7.0035 2.92253 6.72518 3.47466 6.56925C4.1766 6.3723 4.90382 6.2796 5.63286 6.29414L14.0159 6.29786ZM51.3241 6.29786V5.59522C51.346 5.18977 51.2128 4.79115 50.9514 4.47991C50.6383 4.10814 50.0568 4.0561 49.6095 4.0561H38.9937V0.940672H49.6207C50.3682 0.924843 51.1127 1.04063 51.8199 1.2827C52.4036 1.48827 52.9327 1.82394 53.3668 2.26417C53.7716 2.68514 54.0728 3.19424 54.2464 3.75124C54.426 4.33665 54.5152 4.94588 54.5111 5.55804V11.748C54.5183 12.1798 54.4783 12.6111 54.3918 13.0343C54.3195 13.3891 54.1505 13.7171 53.9035 13.9823C53.6346 14.2452 53.2999 14.4313 52.9344 14.5214C52.4628 14.6385 51.9777 14.6923 51.4918 14.6812H42.9187C41.6663 14.6812 40.2312 14.4619 39.3217 13.5213C38.5467 12.6616 38.1446 11.5308 38.2034 10.3762C38.1951 9.80354 38.2807 9.2334 38.4569 8.68833C38.6178 8.19152 38.901 7.74288 39.2807 7.38343C39.7099 7.0036 40.2196 6.7253 40.7717 6.56925C41.4748 6.37193 42.2033 6.27923 42.9336 6.29414L51.3241 6.29786ZM82.974 9.3538V10.0081C82.9513 10.4137 83.0846 10.8126 83.3467 11.1234C83.6636 11.4729 84.2488 11.5361 84.6886 11.5361H95.4647V14.6961H84.7036C83.951 14.7142 83.2012 14.5984 82.4894 14.3541C81.9115 14.1456 81.3879 13.8102 80.9575 13.3726C80.5529 12.9514 80.2518 12.4424 80.0778 11.8855C79.8963 11.2955 79.8071 10.6811 79.8131 10.0639V5.56919C79.8092 4.95704 79.8984 4.34784 80.0778 3.7624C80.2516 3.20545 80.5527 2.69638 80.9575 2.27532C81.3868 1.83375 81.9104 1.49445 82.4894 1.2827C83.2012 1.03843 83.951 0.922609 84.7036 0.940672H91.3869C92.6393 0.940672 94.0744 1.1563 94.9951 2.08572C95.8449 2.94451 96.1133 4.09327 96.1133 5.26806C96.1443 5.82025 96.0611 6.3729 95.8687 6.89161C95.6763 7.41031 95.3789 7.88398 94.9951 8.28311C94.0707 9.17163 92.5648 9.35008 91.3422 9.35008L82.974 9.3538ZM112.596 0.940672V4.07097H105.257C104.299 4.07097 103.855 4.51709 103.855 5.46882V14.6961H100.616V5.07102C100.616 4.01892 100.784 2.77721 101.503 1.96304C102.223 1.14886 103.434 0.940672 104.485 0.940672H112.596ZM14.0159 8.97831H5.67759C5.30484 8.97831 4.70472 9.02293 4.41025 9.30547C4.29299 9.42887 4.20265 9.57517 4.14491 9.73514C4.08717 9.8951 4.06329 10.0653 4.07478 10.2349C4.06599 10.4083 4.09177 10.5817 4.15063 10.745C4.2095 10.9084 4.30028 11.0585 4.41771 11.1866C4.76487 11.4471 5.19638 11.5702 5.62913 11.5324H13.5873C13.8817 11.5324 14.0159 11.458 14.0159 11.1606V8.97831ZM51.3241 8.97831H42.9858C42.613 8.97831 42.0129 9.02293 41.7184 9.30547C41.6021 9.428 41.5123 9.57308 41.4546 9.73169C41.3969 9.8903 41.3725 10.059 41.383 10.2275C41.3742 10.4008 41.4 10.5742 41.4588 10.7376C41.5177 10.901 41.6085 11.0511 41.7259 11.1792C42.0731 11.4397 42.5046 11.5628 42.9373 11.5249H50.8955C51.1899 11.5249 51.3241 11.4506 51.3241 11.1532V8.97831ZM82.974 6.69565H91.2862C91.6851 6.69565 92.2889 6.65104 92.5909 6.35363C92.71 6.23034 92.8024 6.08379 92.862 5.92321C92.9217 5.76262 92.9474 5.59146 92.9375 5.42049C92.9461 5.23903 92.9175 5.05773 92.8534 4.88768C92.7893 4.71764 92.6911 4.56244 92.5648 4.43158C92.2212 4.15932 91.7872 4.02654 91.3496 4.05981H84.7036C84.2563 4.05981 83.6785 4.12673 83.3654 4.48363C83.104 4.79487 82.9707 5.19349 82.9926 5.59894V6.71424L82.974 6.69565ZM63.7589 6.64732H72.0824V4.47248C72.0824 4.17134 71.9444 4.10071 71.6537 4.10071H63.7105C63.2777 4.06283 62.8462 4.18599 62.499 4.44645C62.3823 4.57488 62.2922 4.72511 62.234 4.88846C62.1757 5.05182 62.1506 5.22506 62.1598 5.39818C62.1494 5.56659 62.1738 5.73534 62.2315 5.89395C62.2892 6.05256 62.379 6.19764 62.4953 6.32017C62.7898 6.60643 63.3787 6.64732 63.7627 6.64732H63.7589Z" fill="white"/>
</g>
<defs>
<clipPath id="clip0">
<rect width="111.708" height="13.7443" fill="white" transform="translate(0.888 0.940674)"/>
</clipPath>
</defs>
</svg>
